# xmcd CD database file
#
# Track frame offsets:
#	150
#	20509
#	40538
#	59758
#
# Disc length: 3838 seconds
#
# Revision: 0
# Processed by: cddbd v1.5.1PL0 Copyright (c) Steve Scherf et al.
# Submitted via: CDex 1.51
#
DISCID=2d0efc04
DTITLE=テリオス - テリオスキャラクターCDコレクション Vol.1 天宮ユウ
DYEAR=2004
DGENRE=Game
TTITLE0=ピュアにユウ気
TTITLE1=月下美人
TTITLE2=裸の天使
TTITLE3=ミニドラマ『天使長の豪胆』
EXTD=YEAR: 2004
EXTT0=
EXTT1=
EXTT2=
EXTT3=
PLAYORDER=
